PathFileType	4	(X/Y/Z)	28_2_94_p1_0-171.trc
DataRate	CameraRate	NumFrames	NumMarkers	Units	OrigDataRate	OrigDataStartFrame	OrigNumFrames
60.0	60.0	6	27	m	60.0	129	172
Frame#	Time	RHip			RKnee			RAnkle			RBigToe			RSmallToe			RHeel			LHip			LKnee			LAnkle			LBigToe			LSmallToe			LHeel			Neck			Head			Nose			RShoulder			RElbow			RWrist			RThumb			RIndex			RPinky			LShoulder			LElbow			LWrist			LThumb			LIndex			LPinky			
		X1	Y1	Z1	X2	Y2	Z2	X3	Y3	Z3	X4	Y4	Z4	X5	Y5	Z5	X6	Y6	Z6	X7	Y7	Z7	X8	Y8	Z8	X9	Y9	Z9	X10	Y10	Z10	X11	Y11	Z11	X12	Y12	Z12	X13	Y13	Z13	X14	Y14	Z14	X15	Y15	Z15	X16	Y16	Z16	X17	Y17	Z17	X18	Y18	Z18	X19	Y19	Z19	X20	Y20	Z20	X21	Y21	Z21	X22	Y22	Z22	X23	Y23	Z23	X24	Y24	Z24	X25	Y25	Z25	X26	Y26	Z26	X27	Y27	Z27	
129	2.15	0.20652774853476835	0.6369060454373815	0.9018213291856048	0.19974519188238335	0.8513940556540021	1.3144646145381944	0.20802525554113616	1.057293632565243	1.7229078142066878	0.16312358605498356	0.8688619372455487	1.8000288513128428	0.23285267293381742	0.9081988604412821	1.7980134064428193	0.1969798721851344	1.2050432408966616	1.7787019062475609	-0.04627782477793162	0.6228986980977448	0.9166769852300194	-0.006864602024698954	0.8653067925354214	1.3219943070315818	0.010220861347056936	1.0517782146488641	1.7186066556660657	0.012903529403864498	0.8783724077630234	1.788998380329904	-0.045534118784564516	0.9393605890460215	1.78882229992638	0.046321552779887906	1.171581785525072	1.7803053182948834	0.04822102977125318	0.4191198308652101	0.31108674475198156	0.026657220121384544	0.2522174171604183	0.10684429483280672	0.026823791829388356	0.2474822525207724	0.24520648484710156	0.22542445240156878	0.46045058750117346	0.36960510851477074	0.355833317383687	0.5305040741952921	0.6253504699885299	0.32240297207526436	0.43068142450476177	0.9012130539068929	0.2997299252596425	0.5368331195573598	1.0295846806108397	0.30347117237216664	0.5245658011639315	1.0377173719756023	0.3547238472403368	0.49682342676964353	1.0275898775139	-0.1210004053180921	0.44581593210916554	0.40384813049459845	-0.15217882461573445	0.4618395428269805	0.6756539611283703	-0.02975262226476611	0.18416128798970083	0.6926610757933607	0.04634648081723754	0.13824843507876508	0.6729959954137474	0.04997919090325327	0.07262620482020131	0.6905580424929016	0.03672523089702238	0.07820711484800132	0.7175861489803698
130	2.1666666666666665	0.2108274369209431	0.6233875845441437	0.9141350169836507	0.20012343414172623	0.851336455238749	1.3180841144557656	0.20677854373486923	1.0536792718222008	1.7180631224360936	0.1631171859786491	0.8685687025534949	1.7999798643944327	0.23625938581428563	0.8907226284484215	1.7940353515818448	0.19698767028239644	1.2049588403526204	1.7785785838828698	-0.045411843001182076	0.6224290214220344	0.9283043547769686	-0.006439307939659292	0.8652064731738469	1.3257933971104943	0.010293358909816277	1.0514645251526562	1.7182999590883905	0.01284970753945684	0.8783223251528166	1.7889647653317289	-0.050281187012889125	0.9552400111074162	1.792304406367578	0.0429978119813423	1.1562342050468988	1.7771832922975856	0.04829210053578366	0.419344339569337	0.31097993874262714	0.02676573005881679	0.25214660187865173	0.10680850673026875	0.026988214726744394	0.2477152841379301	0.24506115949508273	0.2302579967990382	0.4646838827921039	0.3715984272139114	0.35622708231460515	0.5286874699697515	0.6263271948774205	0.3169863896446439	0.42979042481500973	0.9016693058515378	0.2759831755125178	0.49677559552656986	1.0207807067656411	0.2908010247153766	0.5258253770853694	1.0343086554523426	0.32592501668751855	0.5089836398354463	1.0328458491034946	-0.1213357308912408	0.4439653261744504	0.4004989473333854	-0.17882502102363262	0.476976353390346	0.6551431899831267	-0.030133663543719845	0.19697414204001992	0.7141477643118456	0.06334268018485362	0.15438912601938323	0.6960792376811701	0.05427722451960638	0.08791772982800553	0.7112399297238641	0.029602533118776888	0.10477958982637421	0.7760170835654563
131	2.183333333333333	0.21532586278322247	0.6246113198660596	0.91774176783632	0.20008876962851793	0.8513902360861457	1.3182084226340567	0.2079815290000699	1.0572339532895487	1.7228521789709335	0.16301650177144464	0.8686646811352191	1.8000512430285978	0.23617978157472103	0.8907726945490482	1.7940725187099371	0.1969936816938996	1.2051662115599036	1.7786833032410518	-0.041329588370098536	0.6363270857383095	0.9273883805837957	-0.010888845821820672	0.8473467627628578	1.320589896578937	0.010599243233336702	1.0514610867482967	1.7222969158219856	0.009572322951346036	0.863151282520857	1.7860154479487087	-0.046116384767882664	0.9410864371048321	1.7967287371636496	0.0464785338373711	1.1719162992010266	1.7802910257409668	0.04839216634861206	0.4193023785261939	0.3109113215511475	0.03387998180568843	0.2634091598767939	0.10209038495593568	0.03064130173952112	0.24832536521615559	0.244595738680992	0.2343992568827598	0.47665716885849146	0.37243668820359094	0.3524660346912767	0.5210414283681317	0.639091719391946	0.3098548877761721	0.4349602952678281	0.912311847987769	0.25593993170863855	0.48515595026946345	1.0262995784837177	0.28144221643826023	0.5143249536529648	1.0349627455432806	0.31170010302960144	0.5342858094431063	1.029480161584613	-0.1250973607596963	0.44326298311991724	0.40469959651134974	-0.18638925262759823	0.4615711942738633	0.665883111827769	-0.03466056244715561	0.20075931116404894	0.7360287577126545	0.06816866221230386	0.1579635954277055	0.7370587837520185	0.05481269226853572	0.10337465982949794	0.7635980640796518	0.02761082555049965	0.10307361256845413	0.8076368889258055
132	2.2	0.21603287164206664	0.6234080005930567	0.9137662453277837	0.20005674235604792	0.8514580214331251	1.3183351543778963	0.20718452023465672	1.0593081526061185	1.7272880224033642	0.1591795891876285	0.8536647228596987	1.7969979966505032	0.23151600685976417	0.8897257937428565	1.7942332420457572	0.1960921853848645	1.2075928623754533	1.783289536832565	-0.038235969671057135	0.6503515724902558	0.9219385715826812	-0.007356606033265845	0.8623023356235499	1.321295683119212	0.010062470209562897	1.0523079099683816	1.7189316478337981	0.009719892691169853	0.8626707873739037	1.7859065678287571	-0.045942544004475144	0.9408744371513544	1.796724213057238	0.04547979710773647	1.1716578749810376	1.7778593658967075	0.0484252856762249	0.41919698024644525	0.31082931317548707	0.03414063914363224	0.26355494414311254	0.10197836198341029	0.03402189569709381	0.25869127734794845	0.2408705595935109	0.23907185449550958	0.4892196475727809	0.37217239241195715	0.349380938457165	0.5372916388823858	0.6409250049914165	0.28716723986301274	0.4915558222958044	0.9101350946045227	0.2349441047625261	0.44287729100965934	1.0245933245072134	0.24554748202952445	0.4593819308971099	1.0344014080512232	0.298090820563386	0.5331850836322941	1.0199698272895366	-0.12459929844969024	0.44744872154850723	0.41117988451823184	-0.1959917254496741	0.48698023457817646	0.6781026716358171	-0.03912435522684087	0.23557195810444112	0.7583376234538695	0.057894076264227705	0.19983021966009298	0.7636504338873104	0.06241357170797562	0.11941619691701962	0.7740964713157482	0.010651994099215061	0.17436750946778357	0.8345930996712415
133	2.216666666666667	0.215556316241009	0.6224886616387628	0.918350235514746	0.20020540063305128	0.8518492567483296	1.3186735288583107	0.20372403952420334	1.0784302115797881	1.730832710093821	0.15922335881897115	0.8548405392266991	1.7971309598461513	0.23610935213696851	0.8909824167428847	1.794115688451307	0.1960673380394834	1.2079007597798221	1.7834213271935373	-0.025953471736351656	0.6500724186688902	0.925399085080093	-0.007278008055088813	0.8622371935638696	1.320856593226097	0.010078966881971683	1.0523221245752385	1.7187840701788664	0.00974748708018707	0.8628750648321033	1.7858569427618647	-0.04591829921035107	0.9408505293314853	1.7965541964399212	0.04546622044704597	1.1718718475975176	1.7778940929146794	0.05266017354339153	0.4205564261042487	0.31024688573200304	0.03834378007510615	0.2647660811311195	0.1012098237102255	0.034136241179078916	0.25859664228788193	0.24084844458976395	0.2375475454967113	0.4643733962782298	0.3785483021436245	0.3491533820987809	0.5387021347599121	0.6444510592499622	0.28488642732175795	0.4894729116546277	0.906622227346002	0.2308420821856784	0.45133224408164174	1.0205154577472892	0.23198018647700303	0.4553948068374757	1.0249903900036978	0.28607368070076233	0.5270601486075527	1.0189526845222818	-0.12467445246349548	0.447608086893632	0.41124498090854655	-0.19588127785554318	0.4871743035348764	0.6811565840335457	-0.03792221489526959	0.2544106735445956	0.7802290794600535	0.06482950309956108	0.23436198739120453	0.7979285094464319	0.0788317680497463	0.17230912368076207	0.8163501618440022	0.008921133187807491	0.192250989457474	0.8553911182190578
134	2.2333333333333334	0.2133606494206798	0.6420517708126903	0.9294407282343334	0.1997057627721565	0.8540340570656816	1.3236638533935436	0.20329294217973357	1.0784681027738923	1.7265202006939488	0.15895388597015614	0.8540853583563479	1.7972920786629814	0.2360042475246955	0.8906742027703541	1.7942842356197242	0.19607611847980613	1.2077402312303598	1.7833681579009018	-0.02228327855271643	0.6646523745353554	0.9277902553913846	-0.007913116103692084	0.8644072781865924	1.3248492362747406	0.008821298446107302	1.048561365862678	1.7136670515356016	0.00976496103016483	0.8629247782618339	1.785806981383537	-0.045986925487844985	0.940773715868347	1.7965147047918337	0.04502092682628735	1.1696575005030048	1.777244156844963	0.05283649753603593	0.42066656018787213	0.3101016176164676	0.04589092983955846	0.27667504645516267	0.09614950663645032	0.03433007046598319	0.2588007822302856	0.24079734131948557	0.23532269280171994	0.47920675441717686	0.37823227647015384	0.34905811097842754	0.5386746737146143	0.6446232868104553	0.27077611777700394	0.4682835891721426	0.913481955036314	0.2171050076142351	0.46110488648422776	1.0153825591335115	0.2224116320390119	0.4407248917428161	1.0217797865217515	0.2515532233365646	0.48476899332163853	1.0249919671998098	-0.12732618481353372	0.4361639800267384	0.4143144041740833	-0.19674174851092652	0.4859879825493637	0.6804434795109034	-0.03476947592577292	0.2605414987344921	0.8021429054213574	0.059864852893247195	0.26674396912127596	0.8274874419705833	0.0705590839738235	0.16992461027024527	0.8366085473436576	0.013816545426185795	0.1973893345358094	0.8728634943578438
